<svg height="512pt" viewBox="0 0 512 512.00001" width="512pt" xmlns="http://www.w3.org/2000/svg"><path d="m341.332031 324.265625h93.867188v17.066406h-93.867188zm0 0" fill="#f7ba61"/><path d="m460.800781 110.933594h42.664063v51.199218h-42.664063zm0 0" fill="#6b9777"/><path d="m8.535156 68.265625c-4.714844 0-8.535156-3.820313-8.535156-8.53125v-51.199219c0-4.714844 3.820312-8.535156 8.535156-8.535156h51.199219c4.710937 0 8.53125 3.820312 8.53125 8.535156 0 4.710938-3.820313 8.53125-8.53125 8.53125h-42.667969v42.667969c0 4.710937-3.820312 8.53125-8.53125 8.53125zm0 0" fill="#8aced8"/><path d="m503.464844 512h-51.199219c-4.710937 0-8.53125-3.820312-8.53125-8.53125 0-4.714844 3.820313-8.535156 8.53125-8.535156h42.667969v-42.667969c0-4.710937 3.820312-8.53125 8.53125-8.53125 4.714844 0 8.535156 3.820313 8.535156 8.53125v51.203125c0 4.710938-3.820312 8.53125-8.535156 8.53125zm0 0" fill="#8aced8"/><path d="m59.734375 512h-51.199219c-4.714844 0-8.535156-3.820312-8.535156-8.53125v-51.203125c0-4.710937 3.820312-8.53125 8.535156-8.53125 4.710938 0 8.53125 3.820313 8.53125 8.53125v42.667969h42.667969c4.710937 0 8.53125 3.820312 8.53125 8.535156 0 4.710938-3.820313 8.53125-8.53125 8.53125zm0 0" fill="#8aced8"/><path d="m503.464844 68.265625c-4.710938 0-8.53125-3.820313-8.53125-8.53125v-42.667969h-42.667969c-4.710937 0-8.53125-3.820312-8.53125-8.535156 0-4.710938 3.820313-8.53125 8.53125-8.53125h51.199219c4.714844 0 8.535156 3.820312 8.535156 8.535156v51.199219c0 4.710937-3.820312 8.53125-8.535156 8.53125zm0 0" fill="#8aced8"/><path d="m256 426.667969c-51.839844 0-93.867188-42.027344-93.867188-93.867188v-196.265625h187.734376v196.265625c0 51.839844-42.027344 93.867188-93.867188 93.867188zm0 0" fill="#fdc9a6"/><path d="m452.265625 469.332031h-392.53125c0-51.839843 42.023437-93.867187 93.867187-93.867187h204.796876c51.84375 0 93.867187 42.027344 93.867187 93.867187zm0 0" fill="#ead397"/><path d="m220.800781 136.535156c-10.898437 27.246094-32.488281 48.835938-59.734375 59.730469l-18.558594-24.746094c-19.34375-25.789062-19.34375-61.25 0-87.039062l2.371094-3.15625c9.671875-12.90625 26.519532-18.164063 41.8125-13.058594zm0 0" fill="#985713"/><path d="m226.449219 149.332031 6.167969 4.636719c33.613281 25.191406 79.671874 25.726562 113.859374 1.320312l62.054688-44.355468-71.960938-53.972656c-19.757812-14.816407-43.789062-22.828126-68.488281-22.828126-30.273437 0-59.308593 12.027344-80.714843 33.433594l-.699219.699219 31.265625 70.351563c1.871094 4.242187 4.804687 7.933593 8.515625 10.714843zm0 0" fill="#985713"/><path d="m298.667969 238.933594c-9.425781 0-17.066407-7.640625-17.066407-17.066406 0-9.425782 7.640626-17.066407 17.066407-17.066407s17.066406 7.640625 17.066406 17.066407c0 9.425781-7.640625 17.066406-17.066406 17.066406zm0 0" fill="#834b10"/><path d="m204.800781 238.933594c-9.425781 0-17.066406-7.640625-17.066406-17.066406 0-9.425782 7.640625-17.066407 17.066406-17.066407s17.066407 7.640625 17.066407 17.066407c0 9.425781-7.640626 17.066406-17.066407 17.066406zm0 0" fill="#834b10"/><path d="m349.867188 256c18.851562 0 34.132812-15.28125 34.132812-34.132812 0-18.851563-15.28125-34.132813-34.132812-34.132813zm0 0" fill="#f6bb92"/><path d="m162.132812 264.535156c-18.851562 0-34.132812-15.285156-34.132812-34.136718 0-18.851563 15.28125-34.132813 34.132812-34.132813zm0 0" fill="#f6bb92"/><path d="m256 290.132812c-2.261719 0-4.433594-.898437-6.03125-2.5l-17.070312-17.066406c-2.875-2.875-3.320313-7.382812-1.066407-10.769531l17.066407-25.601563c2.617187-3.917968 7.917968-4.976562 11.835937-2.363281 3.921875 2.617188 4.980469 7.914063 2.363281 11.835938l-13.183594 19.78125 12.117188 12.117187c3.332031 3.332032 3.332031 8.734375 0 12.066406-1.601562 1.601563-3.769531 2.5-6.03125 2.5zm0 0" fill="#834b10"/><path d="m255.996094 337.617188c-8.226563 0-16.449219-1.308594-24.28125-3.910157l-4.019532-1.347656c-4.46875-1.492187-6.882812-6.324219-5.386718-10.800781 1.492187-4.457032 6.335937-6.875 10.796875-5.382813l4.011719 1.339844c12.1875 4.058594 25.589843 4.058594 37.78125-.007813l3.992187-1.332031c4.46875-1.484375 9.308594.90625 10.800781 5.382813 1.5 4.464844-.917968 9.308594-5.382812 10.800781l-4.007813 1.339844c-7.84375 2.609375-16.070312 3.917969-24.304687 3.917969zm0 0"/><path d="m307.199219 307.199219-51.199219-17.066407-51.199219 17.066407-42.667969-42.667969v68.269531c0 51.839844 42.027344 93.867188 93.867188 93.867188s93.867188-42.027344 93.867188-93.867188v-68.265625zm0 0" fill="#834b10"/><g fill="#99d8aa"><path d="m503.464844 170.667969h-42.664063c-4.714843 0-8.535156-3.820313-8.535156-8.535157v-51.199218c0-4.710938 3.820313-8.535156 8.535156-8.535156h42.664063c4.714844 0 8.535156 3.820312 8.535156 8.535156v51.199218c0 4.714844-3.820312 8.535157-8.535156 8.535157zm-34.132813-17.066407h25.601563v-34.136718h-25.601563zm0 0"/><path d="m452.265625 187.734375h59.734375v17.066406h-59.734375zm0 0"/><path d="m452.265625 221.867188h59.734375v17.066406h-59.734375zm0 0"/><path d="m452.265625 290.132812h59.734375v17.066407h-59.734375zm0 0"/><path d="m452.265625 324.265625h59.734375v17.066406h-59.734375zm0 0"/></g><path d="m328.40625 212.257812-8.277344-14.914062 76.800782-42.667969c1.261718-.707031 2.6875-1.078125 4.136718-1.074219h34.132813v17.066407h-31.921875zm0 0" fill="#f7ba61"/><path d="m76.800781 264.535156h136.53125v17.066406h-136.53125zm0 0" fill="#f7ba61"/><path d="m51.199219 290.132812c-4.710938 0-8.53125-3.820312-8.53125-8.53125v-13.535156l-31.632813-31.632812c-1.601562-1.601563-2.5-3.769532-2.503906-6.035156v-17.066407c0-4.710937 3.820312-8.53125 8.535156-8.53125s8.535156 3.820313 8.535156 8.53125v13.535157l31.632813 31.632812c1.597656 1.601562 2.5 3.769531 2.5 6.035156v17.066406c0 4.710938-3.820313 8.53125-8.535156 8.53125zm0 0" fill="#85bc94"/><path d="m17.066406 290.132812c-4.710937 0-8.535156-3.820312-8.535156-8.53125v-17.066406c.003906-2.265625.902344-4.433594 2.503906-6.035156l31.632813-31.632812v-13.535157c0-4.710937 3.820312-8.53125 8.53125-8.53125 4.714843 0 8.535156 3.820313 8.535156 8.53125v17.066407c0 2.265624-.902344 4.433593-2.5 6.035156l-31.632813 31.632812v13.535156c0 4.710938-3.820312 8.53125-8.535156 8.53125zm0 0" fill="#6b9777"/><path d="m8.535156 307.199219h51.199219v17.066406h-51.199219zm0 0" fill="#99d8aa"/><path d="m8.535156 341.332031h51.199219v17.066407h-51.199219zm0 0" fill="#99d8aa"/><path d="m452.265625 358.398438h17.066406v17.066406h-17.066406zm0 0" fill="#99d8aa"/><path d="m486.398438 358.398438h17.066406v17.066406h-17.066406zm0 0" fill="#99d8aa"/></svg>