<svg height="512pt" viewBox="0 -88 512 512" width="512pt" xmlns="http://www.w3.org/2000/svg"><path d="m408.796875 127.75h96.1875v200.390625h-96.1875zm0 0" fill="#cad8ea"/><path d="m408.796875 304.09375h96.1875v24.046875h-96.1875zm0 0" fill="#96b1d6"/><path d="m408.796875 127.75h96.1875v48.09375h-96.1875zm0 0" fill="#f8e868"/><path d="m408.796875 151.796875h96.1875v24.046875h-96.1875zm0 0" fill="#e0c938"/><path d="m184.359375 127.75h96.1875v200.390625h-96.1875zm0 0" fill="#cad8ea"/><path d="m184.359375 304.09375h96.1875v24.046875h-96.1875zm0 0" fill="#96b1d6"/><path d="m184.359375 127.75h96.1875v48.09375h-96.1875zm0 0" fill="#f8e868"/><path d="m184.359375 151.796875h96.1875v24.046875h-96.1875zm0 0" fill="#e0c938"/><path d="m152.296875 159.8125v-56.109375h-144.28125v128.25h32.0625v96.1875h80.15625v-136.265625h80.15625v-32.0625zm0 0" fill="#9eb6f4"/><path d="m40.078125 304.09375h80.15625v24.046875h-80.15625zm0 0" fill="#6d91ef"/><path d="m112.21875 39.578125c0 17.707031-14.355469 32.0625-32.0625 32.0625s-32.0625-14.355469-32.0625-32.0625 14.355469-32.0625 32.0625-32.0625 32.0625 14.355469 32.0625 32.0625zm0 0" fill="#f5d9ab"/><g fill="#fff"><path d="m464.90625 280.546875h16.03125v15.03125h-16.03125zm0 0"/><path d="m240.46875 280.546875h16.03125v15.03125h-16.03125zm0 0"/><path d="m56.609375 135.765625h15.03125v16.03125h-15.03125zm0 0"/></g><path d="m216.421875 264.015625h39.078125v-40.078125h-15.03125v13.921875l-18.984375-19.234375-10.5 10.875 19.359375 19.484375h-13.921875zm0 0"/><path d="m440.859375 248.984375v15.03125h39.078125v-40.078125h-15.03125v13.921875l-18.980469-19.234375-10.503906 10.875 19.359375 19.484375zm0 0"/><path d="m80.15625 79.15625c21.824219 0 39.578125-17.757812 39.578125-39.578125 0-21.824219-17.753906-39.578125-39.578125-39.578125s-39.578125 17.753906-39.578125 39.578125c0 21.820313 17.753906 39.578125 39.578125 39.578125zm0-64.125c13.535156 0 24.546875 11.011719 24.546875 24.546875s-11.011719 24.546875-24.546875 24.546875-24.546875-11.011719-24.546875-24.546875 11.011719-24.546875 24.546875-24.546875zm0 0"/><path d="m400.78125 120.734375v200.394531h-113.21875v-143.175781l51.546875 51.296875 10.75-10.375-51.171875-51.046875h70.03125v-15.03125h-70.03125l51.300781-51.546875-10.878906-10.75-51.546875 51.171875v-20.9375h-111.21875v32.0625h-17.03125v-56.109375h-159.3125v135.265625h15.03125v-120.234375h129.25v56.109375h48.09375v17.03125h-65.125v-49.09375h-15.03125v185.363281h-25.046875v-89.175781h-15.03125v89.175781h-25.046875v-185.363281h-15.03125v185.363281h-32.0625v15.027344h144.28125v-15.027344h-17.03125v-121.238281h80.15625v-16.03125h65.125v137.269531h-81.15625v-105.207031h-15.03125v105.207031h-16.03125v15.027344h351.6875v-215.421875zm-128.25 48.09375h-65.125v-16.03125h-16.03125v-17.03125h81.15625zm224.4375 152.300781h-81.15625v-137.269531h81.15625zm0-152.300781h-81.15625v-33.0625h81.15625zm0 0"/></svg>